<?xml version="1.0" encoding="UTF-8"?>
<svg xmlns="http://www.w3.org/2000/svg" xmlns:xlink="http://www.w3.org/1999/xlink" viewBox="0 0 66 66" width="66px" height="66px">
<g id="surface37093529">
<path style=" stroke:none;fill-rule:nonzero;fill:rgb(0%,100%,53.333336%);fill-opacity:1;" d="M 59.761719 3.070312 C 59.511719 2.796875 59.160156 2.640625 58.789062 2.640625 L 7.210938 2.640625 C 6.839844 2.640625 6.488281 2.796875 6.238281 3.070312 C 5.988281 3.34375 5.863281 3.710938 5.898438 4.078125 L 10.542969 56.121094 C 10.59375 56.664062 10.972656 57.121094 11.496094 57.273438 L 32.628906 63.308594 C 32.746094 63.34375 32.871094 63.359375 32.992188 63.359375 C 33.113281 63.359375 33.234375 63.34375 33.355469 63.308594 L 54.503906 57.273438 C 55.03125 57.121094 55.410156 56.664062 55.457031 56.121094 L 60.101562 4.078125 C 60.136719 3.710938 60.011719 3.34375 59.761719 3.070312 Z M 15.839844 38.285156 L 25.078125 40.847656 L 25.078125 14.519531 L 30.359375 14.519531 L 30.359375 48.839844 L 15.839844 44.8125 Z M 50.230469 29.039062 L 48.839844 45.210938 L 35.640625 48.839844 L 35.640625 42.765625 L 44.550781 40.316406 L 44.878906 35.367188 L 35.640625 36.960938 L 35.640625 14.519531 L 51.480469 14.519531 L 51.023438 19.800781 L 40.921875 19.800781 L 40.921875 30.359375 Z M 50.230469 29.039062 "/>
</g>
</svg>
