<?xml version="1.0" encoding="UTF-8"?>
<svg xmlns="http://www.w3.org/2000/svg" xmlns:xlink="http://www.w3.org/1999/xlink" viewBox="0 0 70 70" width="70px" height="70px">
<g id="surface37097770">
<path style=" stroke:none;fill-rule:nonzero;fill:rgb(0%,100%,53.333336%);fill-opacity:1;" d="M 63.382812 3.253906 C 63.117188 2.964844 62.742188 2.800781 62.351562 2.800781 L 7.648438 2.800781 C 7.257812 2.800781 6.882812 2.964844 6.617188 3.253906 C 6.351562 3.542969 6.21875 3.933594 6.253906 4.324219 L 11.183594 59.523438 C 11.234375 60.097656 11.636719 60.585938 12.195312 60.746094 L 34.609375 67.148438 C 34.734375 67.183594 34.863281 67.199219 34.992188 67.199219 C 35.121094 67.199219 35.25 67.183594 35.375 67.148438 L 57.808594 60.746094 C 58.367188 60.585938 58.769531 60.097656 58.820312 59.523438 L 63.746094 4.324219 C 63.78125 3.933594 63.648438 3.542969 63.382812 3.253906 Z M 16.800781 40.605469 L 26.601562 43.324219 L 26.601562 15.398438 L 32.199219 15.398438 L 32.199219 51.800781 L 16.800781 47.527344 Z M 53.277344 30.800781 L 51.800781 47.949219 L 37.800781 51.800781 L 37.800781 45.359375 L 47.25 42.761719 L 47.601562 37.511719 L 37.800781 39.199219 L 37.800781 15.398438 L 54.601562 15.398438 L 54.117188 21 L 43.398438 21 L 43.398438 32.199219 Z M 53.277344 30.800781 "/>
</g>
</svg>
