<?xml version="1.0" encoding="UTF-8"?>
<svg xmlns="http://www.w3.org/2000/svg" xmlns:xlink="http://www.w3.org/1999/xlink" viewBox="0 0 66 66" width="66px" height="66px">
<g id="surface126278856">
<path style=" stroke:none;fill-rule:nonzero;fill:rgb(21.960784%,55.686277%,23.529412%);fill-opacity:1;" d="M 23.65625 26.292969 L 16.910156 30.027344 C 16.65625 30.164062 16.5 30.421875 16.5 30.703125 L 16.5 38.171875 C 16.5 38.453125 16.65625 38.710938 16.910156 38.847656 L 23.65625 42.585938 C 23.910156 42.722656 24.21875 42.722656 24.472656 42.585938 L 31.21875 38.847656 C 31.46875 38.710938 31.625 38.453125 31.625 38.171875 L 31.625 30.703125 C 31.625 30.421875 31.46875 30.167969 31.214844 30.027344 L 24.472656 26.292969 C 24.34375 26.222656 24.203125 26.1875 24.0625 26.1875 C 23.921875 26.1875 23.78125 26.222656 23.652344 26.292969 M 58.371094 33.019531 L 57.246094 33.640625 C 57.203125 33.664062 57.179688 33.707031 57.179688 33.753906 L 57.179688 34.996094 C 57.179688 35.042969 57.203125 35.085938 57.246094 35.109375 L 58.371094 35.734375 C 58.414062 35.757812 58.464844 35.757812 58.507812 35.734375 L 59.632812 35.109375 C 59.671875 35.085938 59.699219 35.042969 59.699219 34.996094 L 59.699219 33.753906 C 59.699219 33.707031 59.671875 33.664062 59.628906 33.640625 L 58.503906 33.019531 C 58.484375 33.003906 58.460938 33 58.4375 33 C 58.414062 33 58.390625 33.003906 58.371094 33.019531 "/>
<path style=" stroke:none;fill-rule:nonzero;fill:rgb(0%,0%,0%);fill-opacity:1;" d="M 49.15625 18.375 L 45.871094 16.542969 C 45.769531 16.484375 45.644531 16.484375 45.542969 16.546875 C 45.441406 16.605469 45.375 16.714844 45.375 16.835938 L 45.375 27.90625 L 42.347656 26.230469 C 42.21875 26.160156 42.078125 26.125 41.9375 26.125 C 41.796875 26.125 41.65625 26.160156 41.527344 26.230469 L 41.53125 26.230469 L 34.785156 29.960938 C 34.53125 30.101562 34.375 30.359375 34.375 30.636719 L 34.375 38.109375 C 34.375 38.386719 34.53125 38.644531 34.785156 38.785156 L 41.53125 42.519531 C 41.785156 42.660156 42.09375 42.660156 42.347656 42.519531 L 49.09375 38.785156 C 49.34375 38.644531 49.5 38.386719 49.5 38.109375 L 49.5 18.957031 C 49.5 18.714844 49.367188 18.492188 49.15625 18.375 Z M 45.191406 36.378906 L 42.125 38.078125 C 42.011719 38.140625 41.867188 38.140625 41.753906 38.078125 L 38.6875 36.378906 C 38.570312 36.316406 38.5 36.199219 38.5 36.070312 L 38.5 32.675781 C 38.5 32.550781 38.570312 32.433594 38.6875 32.367188 L 41.753906 30.671875 L 41.75 30.671875 C 41.808594 30.640625 41.871094 30.625 41.9375 30.625 C 42.003906 30.625 42.066406 30.640625 42.125 30.671875 L 45.1875 32.367188 C 45.304688 32.433594 45.375 32.550781 45.375 32.675781 L 45.375 36.074219 C 45.375 36.199219 45.304688 36.316406 45.191406 36.378906 Z M 45.191406 36.378906 "/>
<path style=" stroke:none;fill-rule:nonzero;fill:rgb(18.039216%,49.019608%,19.607843%);fill-opacity:1;" d="M 23.65625 26.292969 L 16.5 38.171875 C 16.5 38.453125 16.65625 38.710938 16.910156 38.847656 L 23.65625 42.585938 C 23.910156 42.722656 24.21875 42.722656 24.472656 42.585938 L 31.625 30.703125 C 31.625 30.421875 31.46875 30.167969 31.214844 30.027344 L 24.472656 26.292969 C 24.34375 26.222656 24.203125 26.1875 24.0625 26.1875 C 23.921875 26.1875 23.78125 26.222656 23.652344 26.292969 "/>
<path style=" stroke:none;fill-rule:nonzero;fill:rgb(29.803923%,68.627453%,31.37255%);fill-opacity:1;" d="M 23.65625 26.292969 L 16.910156 30.027344 C 16.65625 30.164062 16.5 30.421875 16.5 30.703125 L 23.65625 42.585938 C 23.90625 42.722656 24.21875 42.722656 24.472656 42.585938 L 31.21875 38.847656 C 31.46875 38.710938 31.625 38.453125 31.625 38.171875 L 24.472656 26.292969 C 24.34375 26.222656 24.203125 26.1875 24.0625 26.1875 C 23.921875 26.1875 23.78125 26.222656 23.652344 26.292969 "/>
<path style=" stroke:none;fill-rule:nonzero;fill:rgb(0%,0%,0%);fill-opacity:1;" d="M 65.589844 29.960938 L 58.847656 26.230469 C 58.71875 26.160156 58.578125 26.125 58.4375 26.125 C 58.296875 26.125 58.15625 26.160156 58.027344 26.230469 L 58.03125 26.230469 L 51.285156 29.960938 C 51.03125 30.101562 50.875 30.367188 50.875 30.652344 L 50.875 38.09375 C 50.875 38.382812 51.03125 38.648438 51.285156 38.785156 L 58.03125 42.523438 C 58.285156 42.664062 58.59375 42.664062 58.847656 42.523438 L 61.957031 40.800781 C 62.242188 40.640625 62.242188 40.234375 61.957031 40.074219 L 55.1875 36.382812 C 55.070312 36.316406 55 36.195312 55 36.066406 L 55 32.675781 C 55 32.550781 55.070312 32.433594 55.179688 32.371094 L 58.25 30.671875 C 58.308594 30.640625 58.371094 30.625 58.4375 30.625 C 58.5 30.625 58.5625 30.644531 58.621094 30.671875 L 61.695312 32.375 C 61.804688 32.433594 61.875 32.550781 61.875 32.679688 L 61.875 35.445312 C 61.875 35.5625 61.9375 35.671875 62.039062 35.730469 C 62.144531 35.789062 62.269531 35.789062 62.371094 35.730469 L 65.671875 33.816406 C 65.875 33.695312 66 33.476562 66 33.242188 L 66 30.65625 C 66 30.367188 65.84375 30.101562 65.589844 29.960938 Z M 14.714844 29.960938 L 7.972656 26.230469 C 7.84375 26.160156 7.703125 26.125 7.5625 26.125 C 7.421875 26.125 7.28125 26.160156 7.152344 26.230469 L 7.15625 26.230469 L 0.410156 29.960938 C 0.15625 30.101562 0 30.367188 0 30.652344 L 0 40.917969 C 0 41.035156 0.0625 41.148438 0.167969 41.207031 C 0.269531 41.265625 0.394531 41.265625 0.5 41.203125 L 3.796875 39.289062 C 4 39.171875 4.125 38.953125 4.125 38.714844 L 4.125 32.675781 C 4.125 32.550781 4.195312 32.433594 4.304688 32.371094 L 7.375 30.671875 C 7.433594 30.640625 7.496094 30.625 7.5625 30.625 C 7.628906 30.625 7.691406 30.640625 7.75 30.671875 L 10.820312 32.371094 C 10.929688 32.433594 11 32.550781 11 32.675781 L 11 38.71875 C 11 38.953125 11.125 39.171875 11.328125 39.289062 L 14.628906 41.207031 C 14.730469 41.265625 14.855469 41.265625 14.960938 41.207031 C 15.0625 41.148438 15.125 41.035156 15.125 40.917969 L 15.125 30.65625 C 15.125 30.367188 14.96875 30.101562 14.714844 29.960938 Z M 14.714844 29.960938 "/>
</g>
</svg>
